<svg width="20" height="20" fill="none" xmlns="http://www.w3.org/2000/svg"><path d="M13.334 5.966c0-.448.373-.812.833-.812.46 0 .833.364.833.812a.823.823 0 01-.833.812.823.823 0 01-.833-.812z" fill="#545454"/><path fill-rule="evenodd" clip-rule="evenodd" d="M10 6.17c-2.186 0-3.958 1.726-3.958 3.856S7.814 13.883 10 13.883s3.959-1.727 3.959-3.857S12.186 6.169 10 6.169zm-2.708 3.856c0-1.458 1.212-2.639 2.708-2.639 1.496 0 2.709 1.181 2.709 2.639 0 1.457-1.213 2.639-2.709 2.639s-2.708-1.182-2.708-2.64z" fill="#545454"/><path fill-rule="evenodd" clip-rule="evenodd" d="M14.382 2.583a40.807 40.807 0 00-8.764 0c-1.676.182-3.03 1.47-3.227 3.111a36.337 36.337 0 000 8.663c.197 1.643 1.55 2.93 3.227 3.112 2.89.315 5.875.315 8.764 0 1.677-.182 3.03-1.47 3.228-3.112a36.342 36.342 0 000-8.663c-.198-1.642-1.551-2.929-3.228-3.111zm-8.625 1.21a39.525 39.525 0 018.486 0c1.109.12 1.997.973 2.125 2.043a35.146 35.146 0 010 8.38c-.128 1.07-1.016 1.922-2.125 2.043a39.53 39.53 0 01-8.486 0c-1.108-.12-1.996-.973-2.125-2.043a35.15 35.15 0 010-8.38c.129-1.07 1.017-1.922 2.125-2.043z" fill="#545454"/></svg>