<svg width="20" height="20" fill="none" xmlns="http://www.w3.org/2000/svg"><path fill-rule="evenodd" clip-rule="evenodd" d="M2.336 6.25c-.233 2.17-.223 4.67.102 6.831a2.615 2.615 0 002.36 2.216l1.258.11c2.624.228 5.263.228 7.888 0l1.258-.11a2.615 2.615 0 002.36-2.216c.325-2.16.335-4.662.102-6.83a25.23 25.23 0 00-.102-.754 2.615 2.615 0 00-2.36-2.217l-1.258-.109a45.538 45.538 0 00-7.888 0l-1.258.11a2.615 2.615 0 00-2.36 2.216c-.038.25-.071.502-.102.753zm3.828-1.834a44.29 44.29 0 017.671 0l1.259.11a1.365 1.365 0 011.232 1.157l.028.194-4.634 2.575a3.542 3.542 0 01-3.44 0L3.646 5.877l.028-.194a1.365 1.365 0 011.232-1.157l1.258-.11zm10.343 2.806c.162 1.89.101 3.794-.181 5.673a1.365 1.365 0 01-1.232 1.157l-1.259.11a44.28 44.28 0 01-7.67 0l-1.259-.11a1.365 1.365 0 01-1.232-1.157 24.252 24.252 0 01-.181-5.673l4.18 2.322a4.791 4.791 0 004.654 0l4.18-2.322z" fill="#545454"/></svg>