<svg width="20" height="20" fill="none" xmlns="http://www.w3.org/2000/svg"><path fill-rule="evenodd" clip-rule="evenodd" d="M4.867 8.214a14.347 14.347 0 007.435 7.219l.01.004.637.284c.81.36 1.763.104 2.283-.615l1.062-1.47a.208.208 0 00-.038-.284l-1.854-1.495a.208.208 0 00-.298.038l-.722.973a.625.625 0 01-.76.198 11.156 11.156 0 01-5.558-5.559.625.625 0 01.197-.76l.974-.721a.208.208 0 00.038-.298L6.777 3.873a.208.208 0 00-.284-.038L5.015 4.902a1.875 1.875 0 00-.61 2.296l.462 1.015zm6.942 8.367A15.597 15.597 0 013.73 8.734l-.001-.002-.462-1.016a3.125 3.125 0 011.015-3.827L5.76 2.822a1.458 1.458 0 011.989.267l1.496 1.854c.52.645.399 1.594-.267 2.087l-.558.414a9.91 9.91 0 004.265 4.264l.413-.558a1.459 1.459 0 012.088-.266l1.854 1.495a1.46 1.46 0 01.266 1.99l-1.062 1.47a3.125 3.125 0 01-3.805 1.024l-.631-.282z" fill="#545454"/></svg>