<svg width="36" height="36" fill="none" xmlns="http://www.w3.org/2000/svg"><path d="M13.335 23.104a1.5 1.5 0 10.364 2.978 1.5 1.5 0 00-.364-2.978zm-5.013-3.92a1.5 1.5 0 112.978-.364 1.5 1.5 0 01-2.978.364zm3.557-7.991a1.5 1.5 0 10.364 2.978 1.5 1.5 0 00-.364-2.978zm11.667 2.729a1.5 1.5 0 112.978-.365 1.5 1.5 0 01-2.978.365zm-5.557 2.396a1.5 1.5 0 10.364 2.978 1.5 1.5 0 00-.364-2.978zm-.899-5.762a1.5 1.5 0 112.978-.364 1.5 1.5 0 01-2.978.364z" fill="#fff"/><path fill-rule="evenodd" clip-rule="evenodd" d="M3.38 17.646c.195-8.075 6.9-14.462 14.975-14.267 8.074.196 14.461 6.9 14.266 14.976a2.197 2.197 0 01-.501 1.363c-.303.368-.695.609-1.082.77-.753.315-1.697.413-2.631.42-4.033.027-7.536 3.496-7.765 7.587-.053.955-.216 1.926-.627 2.688a2.814 2.814 0 01-.93 1.043c-.428.279-.92.407-1.44.395-8.074-.196-14.461-6.9-14.266-14.975zM18.3 5.629C11.467 5.463 5.794 10.868 5.629 17.7c-.166 6.833 5.239 12.506 12.071 12.671.102.003.14-.02.159-.031a.605.605 0 00.175-.223c.176-.327.314-.903.361-1.748.292-5.212 4.712-9.675 9.997-9.711.843-.006 1.434-.102 1.78-.246a.721.721 0 00.2-.113c.165-6.832-5.24-12.505-12.072-12.67z" fill="#fff"/></svg>