<svg width="36" height="36" fill="none" xmlns="http://www.w3.org/2000/svg"><path d="M15.75 24a2.25 2.25 0 114.5 0 2.25 2.25 0 01-4.5 0z" fill="#fff"/><path fill-rule="evenodd" clip-rule="evenodd" d="M11.432 15.896l-.473-4.259a7.434 7.434 0 010-1.643l.034-.307a7.05 7.05 0 0114.013 0l.035.307c.06.546.06 1.097 0 1.643l-.474 4.259 1.03.082a3.542 3.542 0 013.214 2.958 31.346 31.346 0 010 10.128 3.542 3.542 0 01-3.214 2.958l-2.244.18a67.279 67.279 0 01-10.706 0l-2.244-.18a3.542 3.542 0 01-3.214-2.958 31.338 31.338 0 010-10.128 3.542 3.542 0 013.214-2.958l1.03-.082zM17.44 5.699a4.8 4.8 0 015.331 4.237l.034.307c.043.38.043.765 0 1.146l-.481 4.336a67.277 67.277 0 00-8.646 0l-.482-4.336a5.19 5.19 0 010-1.146l.035-.307a4.8 4.8 0 014.21-4.237zm5.735 12.343a65.027 65.027 0 00-10.348 0l-2.244.179A1.292 1.292 0 009.41 19.3a29.087 29.087 0 000 9.4c.096.587.58 1.032 1.172 1.08l2.244.178c3.444.276 6.904.276 10.348 0l2.244-.179A1.292 1.292 0 0026.59 28.7c.51-3.112.51-6.287 0-9.4a1.292 1.292 0 00-1.172-1.079l-2.244-.18z" fill="#fff"/></svg>