<svg width="36" height="36" fill="none" xmlns="http://www.w3.org/2000/svg"><path d="M3.375 15.045c0-4.051 3.554-7.17 7.725-7.17 2.15 0 4.042 1.008 5.4 2.313 1.358-1.305 3.25-2.313 5.4-2.313 4.171 0 7.725 3.119 7.725 7.17 0 .243-.01.484-.027.723a.435.435 0 01-.439.399h-1.346a.475.475 0 01-.462-.52c.016-.2.024-.4.024-.602 0-2.626-2.356-4.92-5.475-4.92-1.791 0-3.464 1.07-4.508 2.428a1.125 1.125 0 01-1.784 0c-1.044-1.358-2.717-2.428-4.508-2.428-3.119 0-5.475 2.294-5.475 4.92 0 2.105.894 4.065 2.334 5.877 1.443 1.816 3.385 3.418 5.347 4.777.742.515 1.442.952 2.04 1.257.642.327 1.014.419 1.154.419.14 0 .512-.092 1.154-.42.598-.304 1.298-.741 2.04-1.256a34.992 34.992 0 001.894-1.404.456.456 0 01.68.127l.678 1.182a.446.446 0 01-.11.572c-.617.487-1.243.945-1.86 1.373-.784.542-1.576 1.043-2.3 1.412-.681.347-1.464.664-2.176.664-.712 0-1.495-.317-2.175-.664-.725-.37-1.517-.87-2.3-1.412-2.05-1.42-4.19-3.168-5.827-5.227-1.64-2.062-2.823-4.502-2.823-7.277z" fill="#fff"/><path d="M22.21 14.531a1.125 1.125 0 00-1.89-.247l-3.1 3.758H15a1.125 1.125 0 000 2.25h2.75c.336 0 .654-.15.868-.41l2.295-2.781 2.69 5.868a1.125 1.125 0 001.89.247l2.412-2.924H31.5a1.125 1.125 0 000-2.25h-4.125c-.336 0-.654.15-.868.409L24.9 20.399l-2.69-5.868z" fill="#fff"/></svg>