<svg width="20" height="20" fill="none" xmlns="http://www.w3.org/2000/svg"><path fill-rule="evenodd" clip-rule="evenodd" d="M8.74 3.358a4.434 4.434 0 013.093-1.249h2.25c.345 0 .625.273.625.61V5.64c0 .337-.28.61-.625.61h-2.25a.127.127 0 00-.088.035.12.12 0 00-.037.086v1.584h2.375a.63.63 0 01.493.234c.118.148.16.34.113.522l-.75 2.923a.622.622 0 01-.606.462h-1.625v5.237c0 .336-.28.609-.625.609h-3a.617.617 0 01-.625-.61v-5.236H5.833a.617.617 0 01-.625-.61v-2.92c0-.337.28-.61.625-.61h1.625V6.373c0-1.13.46-2.215 1.281-3.014zm3.093-.03c-.829 0-1.624.32-2.21.891a3.006 3.006 0 00-.915 2.153v2.193c0 .336-.28.608-.625.608H6.458v1.706h1.625c.345 0 .625.272.625.609v5.237h1.75v-5.237c0-.337.28-.61.625-.61h1.762l.438-1.705h-2.2a.617.617 0 01-.625-.608V6.372c0-.355.145-.696.403-.947s.607-.393.972-.393h1.625V3.327h-1.625z" fill="#545454"/></svg>